



<svg width="18" height="16" viewBox="0 0 18 16" fill="none" xmlns="http://www.w3.org/2000/svg">
<path fill-rule="evenodd" clip-rule="evenodd" d="M14.1384 15.7798C14.4461 15.5485 14.5137 15.168 14.326 14.6309L12.7575 9.98315L16.7651 7.12587C17.2304 6.79762 17.418 6.44699 17.2979 6.08143C17.1778 5.71588 16.8251 5.53683 16.2473 5.54429L11.3316 5.58159L9.83818 0.911464C9.65806 0.366864 9.38789 0.083374 8.99764 0.083374C8.6149 0.083374 8.34473 0.366864 8.16461 0.911464L6.67116 5.58159L1.75554 5.54429C1.17767 5.53683 0.824948 5.71588 0.704871 6.08143C0.57729 6.44699 0.772414 6.79762 1.23771 7.12587L5.24526 9.98315L3.67676 14.6309C3.48914 15.168 3.55668 15.5485 3.86438 15.7798C4.17208 16.0185 4.56232 15.9365 5.02762 15.6007L8.99764 12.6987L12.9752 15.6007C13.4405 15.9365 13.8232 16.0185 14.1384 15.7798Z"/>
</svg>
